<svg xmlns="http://www.w3.org/2000/svg" xmlns:xlink="http://www.w3.org/1999/xlink" width="37.846mm" height="32.258mm" viewBox="3980 2980 149 127"><title></title><style type="text/css">
*[layerid="1"] {stroke:#FF0000;fill:#FF0000;}
*[layerid="2"] {stroke:#0000FF;fill:#0000FF;}
*[layerid="3"] {stroke:#FFCC00;fill:#FFCC00;}
*[layerid="4"] {stroke:#66CC33;fill:#66CC33;}
*[layerid="5"] {stroke:#808080;fill:#808080;}
*[layerid="6"] {stroke:#800000;fill:#800000;}
*[layerid="7"] {stroke:#800080;fill:#800080;}
*[layerid="8"] {stroke:#AA00FF;fill:#AA00FF;}
*[layerid="9"] {stroke:#6464FF;fill:#6464FF;}
*[layerid="10"] {stroke:#FF00FF;fill:#FF00FF;}
*[layerid="11"] {stroke:#C0C0C0;fill:#C0C0C0;}
*[layerid="12"] {stroke:#FFFFFF;fill:#FFFFFF;}
*[layerid="13"] {stroke:#33CC99;fill:#33CC99;}
*[layerid="14"] {stroke:#5555FF;fill:#5555FF;}
*[layerid="15"] {stroke:#F022F0;fill:#F022F0;}
*[layerid="21"] {stroke:#800000;fill:#800000;}
*[layerid="22"] {stroke:#008000;fill:#008000;}
*[layerid="23"] {stroke:#00FF00;fill:#00FF00;}
*[layerid="24"] {stroke:#BC8E00;fill:#BC8E00;}
*[layerid="25"] {stroke:#70DBFA;fill:#70DBFA;}
*[layerid="26"] {stroke:#00CC66;fill:#00CC66;}
*[layerid="27"] {stroke:#9966FF;fill:#9966FF;}
*[layerid="28"] {stroke:#800080;fill:#800080;}
*[layerid="29"] {stroke:#008080;fill:#008080;}
*[layerid="30"] {stroke:#15935F;fill:#15935F;}
*[layerid="31"] {stroke:#000080;fill:#000080;}
*[layerid="32"] {stroke:#00B400;fill:#00B400;}
*[layerid="33"] {stroke:#2E4756;fill:#2E4756;}
*[layerid="34"] {stroke:#99842F;fill:#99842F;}
*[layerid="35"] {stroke:#FFFFAA;fill:#FFFFAA;}
*[layerid="36"] {stroke:#99842F;fill:#99842F;}
*[layerid="37"] {stroke:#2E4756;fill:#2E4756;}
*[layerid="38"] {stroke:#3535FF;fill:#3535FF;}
*[layerid="39"] {stroke:#8000BC;fill:#8000BC;}
*[layerid="40"] {stroke:#43AE5F;fill:#43AE5F;}
*[layerid="41"] {stroke:#C3ECCE;fill:#C3ECCE;}
*[layerid="42"] {stroke:#728978;fill:#728978;}
*[layerid="43"] {stroke:#39503F;fill:#39503F;}
*[layerid="44"] {stroke:#0C715D;fill:#0C715D;}
*[layerid="45"] {stroke:#5A8A80;fill:#5A8A80;}
*[layerid="46"] {stroke:#2B937E;fill:#2B937E;}
*[layerid="47"] {stroke:#23999D;fill:#23999D;}
*[layerid="48"] {stroke:#45B4E3;fill:#45B4E3;}
*[layerid="49"] {stroke:#215DA1;fill:#215DA1;}
*[layerid="50"] {stroke:#4564D7;fill:#4564D7;}
*[layerid="51"] {stroke:#6969E9;fill:#6969E9;}
*[layerid="52"] {stroke:#9069E9;fill:#9069E9;}
*[fill="none"] {fill: none;}
*[stroke="none"] {stroke: none;}
path, polyline, polygon, line {stroke-linecap:round;}
g[c_partid="part_pad"][layerid="1"] ellipse:not([c_padid]) {fill:#FF0000;}
g[c_partid="part_pad"][layerid="1"]  polygon:not([c_padid]) {fill:#FF0000;}
g[c_partid="part_pad"][layerid="1"]  polyline:not([c_padid]) {stroke:#FF0000;}
g[c_partid="part_pad"][layerid="1"]  circle {fill:#FF0000;}
g[c_partid="part_pad"][layerid="2"]  ellipse:not([c_padid]) {fill:#0000FF;}
g[c_partid="part_pad"][layerid="2"]  polygon:not([c_padid]) {fill:#0000FF;}
g[c_partid="part_pad"][layerid="2"]  polyline:not([c_padid]) {stroke:#0000FF;}
g[c_partid="part_pad"][layerid="2"]  circle {fill:#0000FF;}
g[c_partid="part_pad"][layerid="11"]  ellipse:not([c_padid]) {fill:#C0C0C0;}
g[c_partid="part_pad"][layerid="11"]  polygon:not([c_padid]) {fill:#C0C0C0;}
g[c_partid="part_pad"][layerid="11"]  polyline:not([c_padid]) {stroke:#C0C0C0;}
g[c_partid="part_pad"][layerid="11"]  circle {fill:#C0C0C0;}
g[c_partid="part_pad"][layerid] > circle[c_padhole] {fill: #222222;}
g[c_partid="part_pad"][layerid] > polyline[c_padhole] {stroke:#222222;}
g[c_partid="part_via"][layerid] > * + circle {fill: #222222;}
g[c_partid="part_pad"] > polygon[c_padid] {stroke-linejoin: miter;stroke-miterlimit: 100;}
g[c_partid="part_hole"] > circle {fill: #222222;}path, polyline, polygon {stroke-linejoin:round;}
rect, circle, ellipse, polyline, line, polygon, path {shape-rendering:crispEdges;}
</style>
<rect x="3980" y="2980" width="149" height="127" fill="#000000" stroke="none"/><g id="g1" cpara="" c_transformList="" importFlag="0" xmlns="http://www.w3.org/2000/svg"><polyline points="4081 3011.5 4053 3039.5" stroke-width="1" c_shapetype="line" stroke-linecap="round" fill="none" layerid="2" net="U1_8" id="gge334" /><polyline points="4082.5 3059.5 4087.5 3064.5 4097.5 3064.5 4101.46 3068.46 4101.46 3069.37" stroke-width="1" c_shapetype="line" stroke-linecap="round" fill="none" layerid="2" net="U1_12" id="gge346" /><polyline points="4030.42 3025.22 4030.42 3017.08 4035.5 3012 4043 3012 4044.5 3010.5 4044.5 3005.5" stroke-width="1" c_shapetype="line" stroke-linecap="round" fill="none" layerid="1" net="U1_16" id="gge293" /><polyline points="4033.02 3025.22 4033.02 3034.48 4020.5 3047 4006 3047" stroke-width="1" c_shapetype="line" stroke-linecap="round" fill="none" layerid="1" net="U1_15" id="gge294" /><polyline points="4006 3039 4006 3028 4028.5 3005.5 4036.5 3005.5" stroke-width="1" c_shapetype="line" stroke-linecap="round" fill="none" layerid="1" net="GND" id="gge295" /><polyline points="4044.5 3005.5 4069 3005.5 4083 3019.5 4091.327 3019.5 4091.457 3019.37" stroke-width="1" c_shapetype="line" stroke-linecap="round" fill="none" layerid="1" net="U1_16" id="gge300" /><polyline points="4033.02 3025.22 4033.02 3017.98 4037 3014 4069.5 3014 4085 3029.5 4091.33 3029.5 4091.46 3029.37" stroke-width="1" c_shapetype="line" stroke-linecap="round" fill="none" layerid="1" net="U1_15" id="gge302" /><polyline points="4043.22 3025.22 4043.22 3020.28 4047.5 3016 4068.09 3016 4091.46 3039.37" stroke-width="1" c_shapetype="line" stroke-linecap="round" fill="none" layerid="1" net="U1_11" id="gge306" /><polyline points="4045.82 3025.22 4045.82 3020.68 4048.5 3018 4064 3018 4084.5 3038.5 4084.5 3042.413 4091.457 3049.37" stroke-width="1" c_shapetype="line" stroke-linecap="round" fill="none" layerid="1" net="U1_10" id="gge308" /><polyline points="4048.32 3025.22 4057.307 3025.22 4091.457 3059.37" stroke-width="1" c_shapetype="line" stroke-linecap="round" fill="none" layerid="1" net="U1_9" id="gge309" /><polyline points="4040.72 3025.22 4040.72 3029.22 4044 3032.5 4055.5 3032.5 4082.5 3059.5" stroke-width="1" c_shapetype="line" stroke-linecap="round" fill="none" layerid="1" net="U1_12" id="gge310" /><polyline points="4006 3039 4001 3039 3997.5 3042.5 3997.5 3058 4007.5 3068 4007.744 3067.756 4017.5 3067.756" stroke-width="1" c_shapetype="line" stroke-linecap="round" fill="none" layerid="1" net="GND" id="gge316" /><polyline points="4017.5 3062.24 4017.5 3057.5 4030 3045 4045 3045 4048.5 3048.5 4048.5 3049.5 4048.32 3049.68 4048.32 3053.52" stroke-width="1" c_shapetype="line" stroke-linecap="round" fill="none" layerid="1" net="U1_8" id="gge317" /><polyline points="4045.82 3053.52 4045.82 3058.32 4047.5 3060 4076 3060 4085.5 3069.5 4091.33 3069.5 4091.46 3069.37" stroke-width="1" c_shapetype="line" stroke-linecap="round" fill="none" layerid="1" net="U1_7" id="gge321" /><polyline points="4043.22 3053.52 4043.22 3059.22 4046.5 3062.5 4075 3062.5 4085.5 3073 4087.5 3075 4106 3075 4107.5 3073.5 4107.5 3065.413 4101.457 3059.37" stroke-width="1" c_shapetype="line" stroke-linecap="round" fill="none" layerid="1" net="U1_6" id="gge322" /><polyline points="4038.12 3053.52 4038.12 3057.62 4045.5 3065 4049 3065 4070.5 3086.5 4098 3086.5 4110 3074.5 4110 3057.913 4101.457 3049.37" stroke-width="1" c_shapetype="line" stroke-linecap="round" fill="none" layerid="1" net="U1_4" id="gge324" /><polyline points="4035.52 3053.52 4035.52 3058.52 4045 3068 4048.5 3068 4055 3074.5 4069.5 3089 4099 3089 4112 3076 4112 3049.913 4101.457 3039.37" stroke-width="1" c_shapetype="line" stroke-linecap="round" fill="none" layerid="1" net="U1_3" id="gge325" /><polyline points="4101.457 3029.37 4101.457 3029.457 4114.5 3042.5 4114.5 3077 4099.5 3092 4064 3092 4033 3061 4033.02 3060.98 4033.02 3053.52" stroke-width="1" c_shapetype="line" stroke-linecap="round" fill="none" layerid="1" net="U1_2" id="gge326" /><polyline points="4030.42 3053.52 4030.42 3062.42 4063 3095 4100.5 3095 4117 3078.5 4117 3034.913 4101.457 3019.37" stroke-width="1" c_shapetype="line" stroke-linecap="round" fill="none" layerid="1" net="U1_1" id="gge327" /><polyline points="4091.457 3009.37 4083.13 3009.37 4081.5 3011 4081 3011.5" stroke-width="1" c_shapetype="line" stroke-linecap="round" fill="none" layerid="1" net="U1_8" id="gge330" /><polyline points="4053 3039.5 4051 3041.5 4048.5 3044 4048.5 3048.5" stroke-width="1" c_shapetype="line" stroke-linecap="round" fill="none" layerid="1" net="U1_8" id="gge338" /><polyline points="4101.457 3009.37 4101.457 3009.543 4096.5 3014.5 4096.5 3064.327 4091.457 3069.37" stroke-width="1" c_shapetype="line" stroke-linecap="round" fill="none" layerid="1" net="U1_7" id="gge342" /><g xmlns="http://www.w3.org/2000/svg" c_origin="4039.3701,3039.3701" c_para="package`SSOP-16`" c_partid="part_import_gge2" id="gge2" c_shapetype="group" c_etype="pinpart" layerid="1" c_rotation="90"><g c_partid="part_pad" c_etype="pinpart" c_origin="4030.42,3053.52" layerid="1" number="1" net="U1_1" plated ="Y" c_shapetype="group" id="gge7" locked="0" c_rotation="90" c_width="7.1" c_height="1.6" title="U1_1" c_shape="RECT" pasteExpansion="0" solderExpansion="0.4"><polygon points="4029.62 3057.07 4029.62 3049.97 4031.22 3049.97 4031.22 3057.07" stroke-width="0" /><circle c_padhole="1" cx="4030.42" cy="3053.52" r="0" stroke-width="0" /></g><g c_partid="part_pad" c_etype="pinpart" c_origin="4033.02,3053.52" layerid="1" number="2" net="U1_2" plated ="Y" c_shapetype="group" id="gge12" locked="0" c_rotation="90" c_width="7.1" c_height="1.6" title="U1_2" c_shape="RECT" pasteExpansion="0" solderExpansion="0.4"><polygon points="4032.22 3057.07 4032.22 3049.97 4033.82 3049.97 4033.82 3057.07" stroke-width="0" /><circle c_padhole="1" cx="4033.02" cy="3053.52" r="0" stroke-width="0" /></g><g c_partid="part_pad" c_etype="pinpart" c_origin="4035.52,3053.52" layerid="1" number="3" net="U1_3" plated ="Y" c_shapetype="group" id="gge17" locked="0" c_rotation="90" c_width="7.1" c_height="1.6" title="U1_3" c_shape="RECT" pasteExpansion="0" solderExpansion="0.4"><polygon points="4034.72 3057.07 4034.72 3049.97 4036.32 3049.97 4036.32 3057.07" stroke-width="0" /><circle c_padhole="1" cx="4035.52" cy="3053.52" r="0" stroke-width="0" /></g><g c_partid="part_pad" c_etype="pinpart" c_origin="4038.12,3053.52" layerid="1" number="4" net="U1_4" plated ="Y" c_shapetype="group" id="gge22" locked="0" c_rotation="90" c_width="7.1" c_height="1.6" title="U1_4" c_shape="RECT" pasteExpansion="0" solderExpansion="0.4"><polygon points="4037.32 3057.07 4037.32 3049.97 4038.92 3049.97 4038.92 3057.07" stroke-width="0" /><circle c_padhole="1" cx="4038.12" cy="3053.52" r="0" stroke-width="0" /></g><g c_partid="part_pad" c_etype="pinpart" c_origin="4040.72,3053.52" layerid="1" number="5" net="U1_5" plated ="Y" c_shapetype="group" id="gge27" locked="0" c_rotation="90" c_width="7.1" c_height="1.6" title="U1_5" c_shape="RECT" pasteExpansion="0" solderExpansion="0.4"><polygon points="4039.92 3057.07 4039.92 3049.97 4041.52 3049.97 4041.52 3057.07" stroke-width="0" /><circle c_padhole="1" cx="4040.72" cy="3053.52" r="0" stroke-width="0" /></g><g c_partid="part_pad" c_etype="pinpart" c_origin="4043.22,3053.52" layerid="1" number="6" net="U1_6" plated ="Y" c_shapetype="group" id="gge32" locked="0" c_rotation="90" c_width="7.1" c_height="1.6" title="U1_6" c_shape="RECT" pasteExpansion="0" solderExpansion="0.4"><polygon points="4042.42 3057.07 4042.42 3049.97 4044.02 3049.97 4044.02 3057.07" stroke-width="0" /><circle c_padhole="1" cx="4043.22" cy="3053.52" r="0" stroke-width="0" /></g><g c_partid="part_pad" c_etype="pinpart" c_origin="4045.82,3053.52" layerid="1" number="7" net="U1_7" plated ="Y" c_shapetype="group" id="gge37" locked="0" c_rotation="90" c_width="7.1" c_height="1.6" title="U1_7" c_shape="RECT" pasteExpansion="0" solderExpansion="0.4"><polygon points="4045.02 3057.07 4045.02 3049.97 4046.62 3049.97 4046.62 3057.07" stroke-width="0" /><circle c_padhole="1" cx="4045.82" cy="3053.52" r="0" stroke-width="0" /></g><g c_partid="part_pad" c_etype="pinpart" c_origin="4048.32,3053.52" layerid="1" number="8" net="U1_8" plated ="Y" c_shapetype="group" id="gge42" locked="0" c_rotation="90" c_width="7.1" c_height="1.6" title="U1_8" c_shape="RECT" pasteExpansion="0" solderExpansion="0.4"><polygon points="4047.52 3057.07 4047.52 3049.97 4049.12 3049.97 4049.12 3057.07" stroke-width="0" /><circle c_padhole="1" cx="4048.32" cy="3053.52" r="0" stroke-width="0" /></g><g c_partid="part_pad" c_etype="pinpart" c_origin="4048.32,3025.22" layerid="1" number="9" net="U1_9" plated ="Y" c_shapetype="group" id="gge47" locked="0" c_rotation="90" c_width="7.1" c_height="1.6" title="U1_9" c_shape="RECT" pasteExpansion="0" solderExpansion="0.4"><polygon points="4047.52 3028.77 4047.52 3021.67 4049.12 3021.67 4049.12 3028.77" stroke-width="0" /><circle c_padhole="1" cx="4048.32" cy="3025.22" r="0" stroke-width="0" /></g><g c_partid="part_pad" c_etype="pinpart" c_origin="4045.82,3025.22" layerid="1" number="10" net="U1_10" plated ="Y" c_shapetype="group" id="gge52" locked="0" c_rotation="90" c_width="7.1" c_height="1.6" title="U1_10" c_shape="RECT" pasteExpansion="0" solderExpansion="0.4"><polygon points="4045.02 3028.77 4045.02 3021.67 4046.62 3021.67 4046.62 3028.77" stroke-width="0" /><circle c_padhole="1" cx="4045.82" cy="3025.22" r="0" stroke-width="0" /></g><g c_partid="part_pad" c_etype="pinpart" c_origin="4043.22,3025.22" layerid="1" number="11" net="U1_11" plated ="Y" c_shapetype="group" id="gge57" locked="0" c_rotation="90" c_width="7.1" c_height="1.6" title="U1_11" c_shape="RECT" pasteExpansion="0" solderExpansion="0.4"><polygon points="4042.42 3028.77 4042.42 3021.67 4044.02 3021.67 4044.02 3028.77" stroke-width="0" /><circle c_padhole="1" cx="4043.22" cy="3025.22" r="0" stroke-width="0" /></g><g c_partid="part_pad" c_etype="pinpart" c_origin="4040.72,3025.22" layerid="1" number="12" net="U1_12" plated ="Y" c_shapetype="group" id="gge62" locked="0" c_rotation="90" c_width="7.1" c_height="1.6" title="U1_12" c_shape="RECT" pasteExpansion="0" solderExpansion="0.4"><polygon points="4039.92 3028.77 4039.92 3021.67 4041.52 3021.67 4041.52 3028.77" stroke-width="0" /><circle c_padhole="1" cx="4040.72" cy="3025.22" r="0" stroke-width="0" /></g><g c_partid="part_pad" c_etype="pinpart" c_origin="4038.12,3025.22" layerid="1" number="13" net="U1_13" plated ="Y" c_shapetype="group" id="gge67" locked="0" c_rotation="90" c_width="7.1" c_height="1.6" title="U1_13" c_shape="RECT" pasteExpansion="0" solderExpansion="0.4"><polygon points="4037.32 3028.77 4037.32 3021.67 4038.92 3021.67 4038.92 3028.77" stroke-width="0" /><circle c_padhole="1" cx="4038.12" cy="3025.22" r="0" stroke-width="0" /></g><g c_partid="part_pad" c_etype="pinpart" c_origin="4035.52,3025.22" layerid="1" number="14" net="U1_14" plated ="Y" c_shapetype="group" id="gge72" locked="0" c_rotation="90" c_width="7.1" c_height="1.6" title="U1_14" c_shape="RECT" pasteExpansion="0" solderExpansion="0.4"><polygon points="4034.72 3028.77 4034.72 3021.67 4036.32 3021.67 4036.32 3028.77" stroke-width="0" /><circle c_padhole="1" cx="4035.52" cy="3025.22" r="0" stroke-width="0" /></g><g c_partid="part_pad" c_etype="pinpart" c_origin="4033.02,3025.22" layerid="1" number="15" net="U1_15" plated ="Y" c_shapetype="group" id="gge77" locked="0" c_rotation="90" c_width="7.1" c_height="1.6" title="U1_15" c_shape="RECT" pasteExpansion="0" solderExpansion="0.4"><polygon points="4032.22 3028.77 4032.22 3021.67 4033.82 3021.67 4033.82 3028.77" stroke-width="0" /><circle c_padhole="1" cx="4033.02" cy="3025.22" r="0" stroke-width="0" /></g><g c_partid="part_pad" c_etype="pinpart" c_origin="4030.42,3025.22" layerid="1" number="16" net="U1_16" plated ="Y" c_shapetype="group" id="gge82" locked="0" c_rotation="90" c_width="7.1" c_height="1.6" title="U1_16" c_shape="RECT" pasteExpansion="0" solderExpansion="0.4"><polygon points="4029.62 3028.77 4029.62 3021.67 4031.22 3021.67 4031.22 3028.77" stroke-width="0" /><circle c_padhole="1" cx="4030.42" cy="3025.22" r="0" stroke-width="0" /></g><g c_partid="part_pcbtext" c_origin="4023.96,3040.32" c_rotation="90" c_mirror="" id="gge3" layerid="3" c_shapetype="group" ><path c_fontSize="4.5" c_fontFamily="" c_text="U1" d="M 4021.5101 3040.3201 L 4024.5701 3040.3201 L 4025.1901 3040.1201 L 4025.6001 3039.7101 L 4025.8001 3039.0901 L 4025.8001 3038.6801 L 4025.6001 3038.0701 L 4025.1901 3037.6601 L 4024.5701 3037.4601 L 4021.5101 3037.4601 M 4022.3201 3036.1101 L 4022.1201 3035.7001 L 4021.5101 3035.0801 L 4025.8001 3035.0801" fill="none"  stroke-width="0.6" c_note="note_pre" /></g><g c_partid="part_pcbtext" c_origin="4023.96,3040.32" c_rotation="90" c_mirror="" id="gge5" layerid="3" c_shapetype="group" display="none"><path c_fontSize="4.5" c_fontFamily="" c_text="AS5040" d="M 4016.0101 3038.6801 L 4020.3001 3040.3201 M 4016.0101 3038.6801 L 4020.3001 3037.0501 M 4018.8701 3039.7101 L 4018.8701 3037.6601 M 4016.6201 3032.8301 L 4016.2101 3033.2401 L 4016.0101 3033.8601 L 4016.0101 3034.6701 L 4016.2101 3035.2901 L 4016.6201 3035.7001 L 4017.0301 3035.7001 L 4017.4401 3035.4901 L 4017.6401 3035.2901 L 4017.8501 3034.8801 L 4018.2601 3033.6501 L 4018.4601 3033.2401 L 4018.6601 3033.0401 L 4019.0701 3032.8301 L 4019.6901 3032.8301 L 4020.1001 3033.2401 L 4020.3001 3033.8601 L 4020.3001 3034.6701 L 4020.1001 3035.2901 L 4019.6901 3035.7001 M 4016.0101 3029.0301 L 4016.0101 3031.0701 L 4017.8501 3031.2801 L 4017.6401 3031.0701 L 4017.4401 3030.4601 L 4017.4401 3029.8501 L 4017.6401 3029.2301 L 4018.0501 3028.8201 L 4018.6601 3028.6201 L 4019.0701 3028.6201 L 4019.6901 3028.8201 L 4020.1001 3029.2301 L 4020.3001 3029.8501 L 4020.3001 3030.4601 L 4020.1001 3031.0701 L 4019.8901 3031.2801 L 4019.4801 3031.4801 M 4016.0101 3026.0401 L 4016.2101 3026.6601 L 4016.8201 3027.0701 L 4017.8501 3027.2701 L 4018.4601 3027.2701 L 4019.4801 3027.0701 L 4020.1001 3026.6601 L 4020.3001 3026.0401 L 4020.3001 3025.6301 L 4020.1001 3025.0201 L 4019.4801 3024.6101 L 4018.4601 3024.4101 L 4017.8501 3024.4101 L 4016.8201 3024.6101 L 4016.2101 3025.0201 L 4016.0101 3025.6301 L 4016.0101 3026.0401 M 4016.0101 3021.0101 L 4018.8701 3023.0601 L 4018.8701 3019.9901 M 4016.0101 3021.0101 L 4020.3001 3021.0101 M 4016.0101 3017.4101 L 4016.2101 3018.0201 L 4016.8201 3018.4301 L 4017.8501 3018.6401 L 4018.4601 3018.6401 L 4019.4801 3018.4301 L 4020.1001 3018.0201 L 4020.3001 3017.4101 L 4020.3001 3017.0001 L 4020.1001 3016.3901 L 4019.4801 3015.9801 L 4018.4601 3015.7701 L 4017.8501 3015.7701 L 4016.8201 3015.9801 L 4016.2101 3016.3901 L 4016.0101 3017.0001 L 4016.0101 3017.4101" fill="none"  stroke-width="0.6"  /></g><polyline points="4051.99 3048.83 4026.8 3048.83" stroke-width="1" c_shapetype="line" stroke-linecap="round" fill="none" layerid="3" net="" id="gge87" /><polyline points="4051.99 3029.93 4026.8 3029.93" stroke-width="1" c_shapetype="line" stroke-linecap="round" fill="none" layerid="3" net="" id="gge88" /><polyline points="4051.99 3048.83 4051.99 3029.93" stroke-width="1" c_shapetype="line" stroke-linecap="round" fill="none" layerid="3" net="" id="gge89" /><polyline points="4026.8 3048.82 4026.8 3029.93" stroke-width="1" c_shapetype="line" stroke-linecap="round" fill="none" layerid="3" net="" id="gge90" /><circle cx="4029.72" cy="3046.32" r="1" stroke-width="1" fill="none" layerid="3" id="gge91" c_shapetype="line" /></g><g xmlns="http://www.w3.org/2000/svg" c_origin="4096.4567,3039.3701" c_para="package`HDR-7X2/2.54`" c_partid="part_import_gge92" id="gge92" c_shapetype="group" c_etype="pinpart" layerid="1" c_rotation="90"><g c_partid="part_pcbtext" c_origin="4083.62,3039.37" c_rotation="90" c_mirror="" id="gge93" layerid="3" c_shapetype="group" ><path c_fontSize="4.5" c_fontFamily="" c_text="P1" d="M 4081.1667 3039.3701 L 4085.4567 3039.3701 M 4081.1667 3039.3701 L 4081.1667 3037.5301 L 4081.3667 3036.9201 L 4081.5667 3036.7101 L 4081.9767 3036.5101 L 4082.5967 3036.5101 L 4083.0067 3036.7101 L 4083.2067 3036.9201 L 4083.4167 3037.5301 L 4083.4167 3039.3701 M 4081.9767 3035.1601 L 4081.7767 3034.7501 L 4081.1667 3034.1301 L 4085.4567 3034.1301" fill="none"  stroke-width="0.6" c_note="note_pre" /></g><g c_partid="part_pcbtext" c_origin="4083.62,3039.37" c_rotation="90" c_mirror="" id="gge95" layerid="3" c_shapetype="group" display="none"><path c_fontSize="4.5" c_fontFamily="" c_text="Header 2x7" d="M 4075.6667 3039.3701 L 4079.9567 3039.3701 M 4075.6667 3036.5101 L 4079.9567 3036.5101 M 4077.7067 3039.3701 L 4077.7067 3036.5101 M 4078.3167 3035.1601 L 4078.3167 3032.7001 L 4077.9167 3032.7001 L 4077.5067 3032.9101 L 4077.2967 3033.1101 L 4077.0967 3033.5201 L 4077.0967 3034.1301 L 4077.2967 3034.5401 L 4077.7067 3034.9501 L 4078.3167 3035.1601 L 4078.7267 3035.1601 L 4079.3467 3034.9501 L 4079.7567 3034.5401 L 4079.9567 3034.1301 L 4079.9567 3033.5201 L 4079.7567 3033.1101 L 4079.3467 3032.7001 M 4077.0967 3028.9001 L 4079.9567 3028.9001 M 4077.7067 3028.9001 L 4077.2967 3029.3101 L 4077.0967 3029.7201 L 4077.0967 3030.3301 L 4077.2967 3030.7401 L 4077.7067 3031.1501 L 4078.3167 3031.3501 L 4078.7267 3031.3501 L 4079.3467 3031.1501 L 4079.7567 3030.7401 L 4079.9567 3030.3301 L 4079.9567 3029.7201 L 4079.7567 3029.3101 L 4079.3467 3028.9001 M 4075.6667 3025.0901 L 4079.9567 3025.0901 M 4077.7067 3025.0901 L 4077.2967 3025.5001 L 4077.0967 3025.9101 L 4077.0967 3026.5201 L 4077.2967 3026.9301 L 4077.7067 3027.3401 L 4078.3167 3027.5501 L 4078.7267 3027.5501 L 4079.3467 3027.3401 L 4079.7567 3026.9301 L 4079.9567 3026.5201 L 4079.9567 3025.9101 L 4079.7567 3025.5001 L 4079.3467 3025.0901 M 4078.3167 3023.7401 L 4078.3167 3021.2901 L 4077.9167 3021.2901 L 4077.5067 3021.4901 L 4077.2967 3021.7001 L 4077.0967 3022.1101 L 4077.0967 3022.7201 L 4077.2967 3023.1301 L 4077.7067 3023.5401 L 4078.3167 3023.7401 L 4078.7267 3023.7401 L 4079.3467 3023.5401 L 4079.7567 3023.1301 L 4079.9567 3022.7201 L 4079.9567 3022.1101 L 4079.7567 3021.7001 L 4079.3467 3021.2901 M 4077.0967 3019.9401 L 4079.9567 3019.9401 M 4078.3167 3019.9401 L 4077.7067 3019.7301 L 4077.2967 3019.3201 L 4077.0967 3018.9201 L 4077.0967 3018.3001 M 4076.6867 3013.6001 L 4076.4767 3013.6001 L 4076.0667 3013.3901 L 4075.8667 3013.1901 L 4075.6667 3012.7801 L 4075.6667 3011.9601 L 4075.8667 3011.5501 L 4076.0667 3011.3501 L 4076.4767 3011.1401 L 4076.8867 3011.1401 L 4077.2967 3011.3501 L 4077.9167 3011.7601 L 4079.9567 3013.8001 L 4079.9567 3010.9401 M 4077.0967 3009.5901 L 4079.9567 3007.3401 M 4077.0967 3007.3401 L 4079.9567 3009.5901 M 4075.6667 3003.1201 L 4079.9567 3005.1701 M 4075.6667 3005.9901 L 4075.6667 3003.1201" fill="none"  stroke-width="0.6"  /></g><polyline points="4086.457 3074.37 4106.457 3074.37 4106.457 3004.37 4086.457 3004.37 4086.457 3074.37" stroke-width="0.8" c_shapetype="line" stroke-linecap="round" fill="none" layerid="3" net="" id="gge97" /><g c_partid="part_pad" c_etype="pinpart" c_origin="4101.46,3069.37" layerid="11" number="1" net="U1_12" plated ="Y" c_shapetype="group" id="gge98" locked="0" c_rotation="90" c_width="6.2" c_height="6.2" title="U1_12" c_shape="RECT" pasteExpansion="0" solderExpansion="0.4"><polygon points="4098.357 3072.47 4098.357 3066.27 4104.557 3066.27 4104.557 3072.47" stroke-width="0" /><circle c_padhole="1" cx="4101.46" cy="3069.37" r="1.75" stroke-width="0" /></g><g c_partid="part_pad" c_etype="pinpart" c_origin="4091.46,3069.37" layerid="11" number="2" net="U1_7" plated ="Y" c_shapetype="group" id="gge103" locked="0" c_rotation="90" c_width="6.2" c_height="6.2" title="U1_7" c_shape="ELLIPSE" pasteExpansion="0" solderExpansion="0.4"><ellipse cx="4091.46" cy="3069.37" rx="3.1" ry="3.1" stroke-width="0" /><circle c_padhole="1" cx="4091.46" cy="3069.37" r="1.75" stroke-width="0" /></g><g c_partid="part_pad" c_etype="pinpart" c_origin="4101.46,3059.37" layerid="11" number="3" net="U1_6" plated ="Y" c_shapetype="group" id="gge108" locked="0" c_rotation="90" c_width="6.2" c_height="6.2" title="U1_6" c_shape="ELLIPSE" pasteExpansion="0" solderExpansion="0.4"><ellipse cx="4101.46" cy="3059.37" rx="3.1" ry="3.1" stroke-width="0" /><circle c_padhole="1" cx="4101.46" cy="3059.37" r="1.75" stroke-width="0" /></g><g c_partid="part_pad" c_etype="pinpart" c_origin="4091.46,3059.37" layerid="11" number="4" net="U1_9" plated ="Y" c_shapetype="group" id="gge113" locked="0" c_rotation="90" c_width="6.2" c_height="6.2" title="U1_9" c_shape="ELLIPSE" pasteExpansion="0" solderExpansion="0.4"><ellipse cx="4091.46" cy="3059.37" rx="3.1" ry="3.1" stroke-width="0" /><circle c_padhole="1" cx="4091.46" cy="3059.37" r="1.75" stroke-width="0" /></g><g c_partid="part_pad" c_etype="pinpart" c_origin="4101.46,3049.37" layerid="11" number="5" net="U1_4" plated ="Y" c_shapetype="group" id="gge118" locked="0" c_rotation="90" c_width="6.2" c_height="6.2" title="U1_4" c_shape="ELLIPSE" pasteExpansion="0" solderExpansion="0.4"><ellipse cx="4101.46" cy="3049.37" rx="3.1" ry="3.1" stroke-width="0" /><circle c_padhole="1" cx="4101.46" cy="3049.37" r="1.75" stroke-width="0" /></g><g c_partid="part_pad" c_etype="pinpart" c_origin="4091.46,3049.37" layerid="11" number="6" net="U1_10" plated ="Y" c_shapetype="group" id="gge123" locked="0" c_rotation="90" c_width="6.2" c_height="6.2" title="U1_10" c_shape="ELLIPSE" pasteExpansion="0" solderExpansion="0.4"><ellipse cx="4091.46" cy="3049.37" rx="3.1" ry="3.1" stroke-width="0" /><circle c_padhole="1" cx="4091.46" cy="3049.37" r="1.75" stroke-width="0" /></g><g c_partid="part_pad" c_etype="pinpart" c_origin="4101.46,3039.37" layerid="11" number="7" net="U1_3" plated ="Y" c_shapetype="group" id="gge128" locked="0" c_rotation="90" c_width="6.2" c_height="6.2" title="U1_3" c_shape="ELLIPSE" pasteExpansion="0" solderExpansion="0.4"><ellipse cx="4101.46" cy="3039.37" rx="3.1" ry="3.1" stroke-width="0" /><circle c_padhole="1" cx="4101.46" cy="3039.37" r="1.75" stroke-width="0" /></g><g c_partid="part_pad" c_etype="pinpart" c_origin="4091.46,3039.37" layerid="11" number="8" net="U1_11" plated ="Y" c_shapetype="group" id="gge133" locked="0" c_rotation="90" c_width="6.2" c_height="6.2" title="U1_11" c_shape="ELLIPSE" pasteExpansion="0" solderExpansion="0.4"><ellipse cx="4091.46" cy="3039.37" rx="3.1" ry="3.1" stroke-width="0" /><circle c_padhole="1" cx="4091.46" cy="3039.37" r="1.75" stroke-width="0" /></g><g c_partid="part_pad" c_etype="pinpart" c_origin="4101.46,3029.37" layerid="11" number="9" net="U1_2" plated ="Y" c_shapetype="group" id="gge138" locked="0" c_rotation="90" c_width="6.2" c_height="6.2" title="U1_2" c_shape="ELLIPSE" pasteExpansion="0" solderExpansion="0.4"><ellipse cx="4101.46" cy="3029.37" rx="3.1" ry="3.1" stroke-width="0" /><circle c_padhole="1" cx="4101.46" cy="3029.37" r="1.75" stroke-width="0" /></g><g c_partid="part_pad" c_etype="pinpart" c_origin="4091.46,3029.37" layerid="11" number="10" net="U1_15" plated ="Y" c_shapetype="group" id="gge143" locked="0" c_rotation="90" c_width="6.2" c_height="6.2" title="U1_15" c_shape="ELLIPSE" pasteExpansion="0" solderExpansion="0.4"><ellipse cx="4091.46" cy="3029.37" rx="3.1" ry="3.1" stroke-width="0" /><circle c_padhole="1" cx="4091.46" cy="3029.37" r="1.75" stroke-width="0" /></g><g c_partid="part_pad" c_etype="pinpart" c_origin="4101.46,3019.37" layerid="11" number="11" net="U1_1" plated ="Y" c_shapetype="group" id="gge148" locked="0" c_rotation="90" c_width="6.2" c_height="6.2" title="U1_1" c_shape="ELLIPSE" pasteExpansion="0" solderExpansion="0.4"><ellipse cx="4101.46" cy="3019.37" rx="3.1" ry="3.1" stroke-width="0" /><circle c_padhole="1" cx="4101.46" cy="3019.37" r="1.75" stroke-width="0" /></g><g c_partid="part_pad" c_etype="pinpart" c_origin="4091.46,3019.37" layerid="11" number="12" net="U1_16" plated ="Y" c_shapetype="group" id="gge153" locked="0" c_rotation="90" c_width="6.2" c_height="6.2" title="U1_16" c_shape="ELLIPSE" pasteExpansion="0" solderExpansion="0.4"><ellipse cx="4091.46" cy="3019.37" rx="3.1" ry="3.1" stroke-width="0" /><circle c_padhole="1" cx="4091.46" cy="3019.37" r="1.75" stroke-width="0" /></g><g c_partid="part_pad" c_etype="pinpart" c_origin="4101.46,3009.37" layerid="11" number="13" net="U1_7" plated ="Y" c_shapetype="group" id="gge158" locked="0" c_rotation="90" c_width="6.2" c_height="6.2" title="U1_7" c_shape="ELLIPSE" pasteExpansion="0" solderExpansion="0.4"><ellipse cx="4101.46" cy="3009.37" rx="3.1" ry="3.1" stroke-width="0" /><circle c_padhole="1" cx="4101.46" cy="3009.37" r="1.75" stroke-width="0" /></g><g c_partid="part_pad" c_etype="pinpart" c_origin="4091.46,3009.37" layerid="11" number="14" net="U1_8" plated ="Y" c_shapetype="group" id="gge163" locked="0" c_rotation="90" c_width="6.2" c_height="6.2" title="U1_8" c_shape="ELLIPSE" pasteExpansion="0" solderExpansion="0.4"><ellipse cx="4091.46" cy="3009.37" rx="3.1" ry="3.1" stroke-width="0" /><circle c_padhole="1" cx="4091.46" cy="3009.37" r="1.75" stroke-width="0" /></g></g><g xmlns="http://www.w3.org/2000/svg" c_origin="4040.5,3005.5" c_para="package`0805`" c_partid="part_import_gge168" id="gge168" c_shapetype="group" c_etype="pinpart" layerid="1" ><g c_partid="part_pad" c_etype="pinpart" c_origin="4036.5,3005.5" layerid="1" number="1" net="GND" plated ="Y" c_shapetype="group" id="gge173" locked="0" c_rotation="0" c_width="4.567" c_height="5.7087" title="GND" c_shape="RECT" pasteExpansion="0" solderExpansion="0.4"><polygon points="4034.217 3002.646 4038.784 3002.646 4038.784 3008.354 4034.217 3008.354" stroke-width="0" /><circle c_padhole="1" cx="4036.5" cy="3005.5" r="0" stroke-width="0" /></g><g c_partid="part_pad" c_etype="pinpart" c_origin="4044.5,3005.5" layerid="1" number="2" net="U1_16" plated ="Y" c_shapetype="group" id="gge178" locked="0" c_rotation="0" c_width="4.567" c_height="5.7087" title="U1_16" c_shape="RECT" pasteExpansion="0" solderExpansion="0.4"><polygon points="4042.217 3002.646 4046.784 3002.646 4046.784 3008.354 4042.217 3008.354" stroke-width="0" /><circle c_padhole="1" cx="4044.5" cy="3005.5" r="0" stroke-width="0" /></g><g c_partid="part_pcbtext" c_origin="4039.5,2998.58" c_rotation="0" c_mirror="" id="gge169" layerid="3" c_shapetype="group" ><path c_fontSize="4.5" c_fontFamily="" c_text="C4" d="M 4042.569 2997.149 L 4042.359 2996.739 L 4041.949 2996.329 L 4041.549 2996.129 L 4040.729 2996.129 L 4040.319 2996.329 L 4039.909 2996.739 L 4039.699 2997.149 L 4039.499 2997.769 L 4039.499 2998.789 L 4039.699 2999.399 L 4039.909 2999.809 L 4040.319 3000.219 L 4040.729 3000.429 L 4041.549 3000.429 L 4041.949 3000.219 L 4042.359 2999.809 L 4042.569 2999.399 M 4045.959 2996.129 L 4043.919 2998.989 L 4046.989 2998.989 M 4045.959 2996.129 L 4045.959 3000.429" fill="none"  stroke-width="0.6" c_note="note_pre" /></g><g c_partid="part_pcbtext" c_origin="4039.5,2998.58" c_rotation="0" c_mirror="" id="gge171" layerid="3" c_shapetype="group" display="none"><path c_fontSize="4.5" c_fontFamily="" c_text="10uF" d="M 4039.499 2991.449 L 4039.909 2991.239 L 4040.519 2990.629 L 4040.519 2994.929 M 4043.099 2990.629 L 4042.489 2990.829 L 4042.079 2991.449 L 4041.869 2992.469 L 4041.869 2993.079 L 4042.079 2994.109 L 4042.489 2994.719 L 4043.099 2994.929 L 4043.509 2994.929 L 4044.119 2994.719 L 4044.529 2994.109 L 4044.739 2993.079 L 4044.739 2992.469 L 4044.529 2991.449 L 4044.119 2990.829 L 4043.509 2990.629 L 4043.099 2990.629 M 4046.089 2992.059 L 4046.089 2994.109 L 4046.289 2994.719 L 4046.699 2994.929 L 4047.309 2994.929 L 4047.719 2994.719 L 4048.339 2994.109 M 4048.339 2992.059 L 4048.339 2994.929 M 4049.689 2990.629 L 4049.689 2994.929 M 4049.689 2990.629 L 4052.349 2990.629 M 4049.689 2992.679 L 4051.319 2992.679" fill="none"  stroke-width="0.6"  /></g><polyline points="4042.684 3009.574 4047.881 3009.574 4047.881 3001.424 4042.684 3001.424" stroke-width="0.787" c_shapetype="line" stroke-linecap="round" fill="none" layerid="3" net="" id="gge183" /><polyline points="4038.227 3009.574 4033.03 3009.574 4033.03 3001.424 4038.227 3001.424" stroke-width="0.787" c_shapetype="line" stroke-linecap="round" fill="none" layerid="3" net="" id="gge184" /></g><g xmlns="http://www.w3.org/2000/svg" c_origin="4006,3043" c_para="package`0805`" c_partid="part_import_gge185" id="gge185" c_shapetype="group" c_etype="pinpart" layerid="1" c_rotation="270"><g c_partid="part_pad" c_etype="pinpart" c_origin="4006,3039" layerid="1" number="1" net="GND" plated ="Y" c_shapetype="group" id="gge190" locked="0" c_rotation="270" c_width="4.567" c_height="5.7087" title="GND" c_shape="RECT" pasteExpansion="0" solderExpansion="0.4"><polygon points="4008.854 3036.717 4008.854 3041.284 4003.146 3041.284 4003.146 3036.717" stroke-width="0" /><circle c_padhole="1" cx="4006" cy="3039" r="0" stroke-width="0" /></g><g c_partid="part_pad" c_etype="pinpart" c_origin="4006,3047" layerid="1" number="2" net="U1_15" plated ="Y" c_shapetype="group" id="gge195" locked="0" c_rotation="270" c_width="4.567" c_height="5.7087" title="U1_15" c_shape="RECT" pasteExpansion="0" solderExpansion="0.4"><polygon points="4008.854 3044.717 4008.854 3049.284 4003.146 3049.284 4003.146 3044.717" stroke-width="0" /><circle c_padhole="1" cx="4006" cy="3047" r="0" stroke-width="0" /></g><g c_partid="part_pcbtext" c_origin="4012.92,3042" c_rotation="90" c_mirror="" id="gge186" layerid="3" c_shapetype="group" ><path c_fontSize="4.5" c_fontFamily="" c_text="C5" d="M 4011.481 3038.929 L 4011.071 3039.139 L 4010.661 3039.549 L 4010.461 3039.949 L 4010.461 3040.769 L 4010.661 3041.179 L 4011.071 3041.589 L 4011.481 3041.799 L 4012.101 3041.999 L 4013.121 3041.999 L 4013.731 3041.799 L 4014.141 3041.589 L 4014.551 3041.179 L 4014.761 3040.769 L 4014.761 3039.949 L 4014.551 3039.549 L 4014.141 3039.139 L 4013.731 3038.929 M 4010.461 3035.129 L 4010.461 3037.169 L 4012.301 3037.379 L 4012.101 3037.169 L 4011.891 3036.559 L 4011.891 3035.949 L 4012.101 3035.329 L 4012.511 3034.919 L 4013.121 3034.719 L 4013.531 3034.719 L 4014.141 3034.919 L 4014.551 3035.329 L 4014.761 3035.949 L 4014.761 3036.559 L 4014.551 3037.169 L 4014.351 3037.379 L 4013.941 3037.579" fill="none"  stroke-width="0.6" c_note="note_pre" /></g><g c_partid="part_pcbtext" c_origin="4012.92,3042" c_rotation="270" c_mirror="" id="gge188" layerid="3" c_shapetype="group" display="none"><path c_fontSize="4.5" c_fontFamily="" c_text="10uF" d="M 4020.051 3041.999 L 4020.261 3042.409 L 4020.871 3043.019 L 4016.571 3043.019 M 4020.871 3045.599 L 4020.671 3044.989 L 4020.051 3044.579 L 4019.031 3044.369 L 4018.421 3044.369 L 4017.391 3044.579 L 4016.781 3044.989 L 4016.571 3045.599 L 4016.571 3046.009 L 4016.781 3046.619 L 4017.391 3047.029 L 4018.421 3047.239 L 4019.031 3047.239 L 4020.051 3047.029 L 4020.671 3046.619 L 4020.871 3046.009 L 4020.871 3045.599 M 4019.441 3048.589 L 4017.391 3048.589 L 4016.781 3048.789 L 4016.571 3049.199 L 4016.571 3049.809 L 4016.781 3050.219 L 4017.391 3050.839 M 4019.441 3050.839 L 4016.571 3050.839 M 4020.871 3052.189 L 4016.571 3052.189 M 4020.871 3052.189 L 4020.871 3054.849 M 4018.821 3052.189 L 4018.821 3053.819" fill="none"  stroke-width="0.6"  /></g><polyline points="4001.926 3045.184 4001.926 3050.381 4010.076 3050.381 4010.076 3045.184" stroke-width="0.787" c_shapetype="line" stroke-linecap="round" fill="none" layerid="3" net="" id="gge200" /><polyline points="4001.926 3040.727 4001.926 3035.53 4010.076 3035.53 4010.076 3040.727" stroke-width="0.787" c_shapetype="line" stroke-linecap="round" fill="none" layerid="3" net="" id="gge201" /></g><g xmlns="http://www.w3.org/2000/svg" c_origin="4017.5,3065" c_para="package`0603`" c_partid="part_import_gge202" id="gge202" c_shapetype="group" c_etype="pinpart" layerid="1" c_rotation="270"><g c_partid="part_pad" c_etype="pinpart" c_origin="4017.5,3062.24" layerid="1" number="1" net="U1_8" plated ="Y" c_shapetype="group" id="gge207" locked="0" c_rotation="270" c_width="3.937" c_height="4.3307" title="U1_8" c_shape="RECT" pasteExpansion="0" solderExpansion="0.4"><polygon points="4019.665 3060.275 4019.665 3064.212 4015.335 3064.212 4015.335 3060.275" stroke-width="0" /><circle c_padhole="1" cx="4017.5" cy="3062.24" r="0" stroke-width="0" /></g><g c_partid="part_pad" c_etype="pinpart" c_origin="4017.5,3067.76" layerid="1" number="2" net="GND" plated ="Y" c_shapetype="group" id="gge212" locked="0" c_rotation="270" c_width="3.937" c_height="4.3307" title="GND" c_shape="RECT" pasteExpansion="0" solderExpansion="0.4"><polygon points="4019.665 3065.787 4019.665 3069.724 4015.335 3069.724 4015.335 3065.787" stroke-width="0" /><circle c_padhole="1" cx="4017.5" cy="3067.76" r="0" stroke-width="0" /></g><g c_partid="part_pcbtext" c_origin="4026.94,3068.04" c_rotation="90" c_mirror="" id="gge203" layerid="3" c_shapetype="group" ><path c_fontSize="4.5" c_fontFamily="" c_text="C1" d="M 4025.51 3064.97 L 4025.1 3065.18 L 4024.69 3065.59 L 4024.49 3065.99 L 4024.49 3066.81 L 4024.69 3067.22 L 4025.1 3067.63 L 4025.51 3067.84 L 4026.12 3068.04 L 4027.14 3068.04 L 4027.76 3067.84 L 4028.17 3067.63 L 4028.58 3067.22 L 4028.78 3066.81 L 4028.78 3065.99 L 4028.58 3065.59 L 4028.17 3065.18 L 4027.76 3064.97 M 4025.3 3063.62 L 4025.1 3063.21 L 4024.49 3062.6 L 4028.78 3062.6" fill="none"  stroke-width="0.6" c_note="note_pre" /></g><g c_partid="part_pcbtext" c_origin="4026.94,3068.04" c_rotation="270" c_mirror="" id="gge205" layerid="3" c_shapetype="group" display="none"><path c_fontSize="4.5" c_fontFamily="" c_text="100nF" d="M 4028.58 3068.04 L 4028.78 3068.45 L 4029.39 3069.06 L 4025.1 3069.06 M 4029.39 3071.64 L 4029.19 3071.03 L 4028.58 3070.62 L 4027.55 3070.41 L 4026.94 3070.41 L 4025.92 3070.62 L 4025.3 3071.03 L 4025.1 3071.64 L 4025.1 3072.05 L 4025.3 3072.66 L 4025.92 3073.07 L 4026.94 3073.28 L 4027.55 3073.28 L 4028.58 3073.07 L 4029.19 3072.66 L 4029.39 3072.05 L 4029.39 3071.64 M 4029.39 3075.85 L 4029.19 3075.24 L 4028.58 3074.83 L 4027.55 3074.63 L 4026.94 3074.63 L 4025.92 3074.83 L 4025.3 3075.24 L 4025.1 3075.85 L 4025.1 3076.26 L 4025.3 3076.88 L 4025.92 3077.29 L 4026.94 3077.49 L 4027.55 3077.49 L 4028.58 3077.29 L 4029.19 3076.88 L 4029.39 3076.26 L 4029.39 3075.85 M 4027.96 3078.84 L 4025.1 3078.84 M 4027.14 3078.84 L 4027.76 3079.45 L 4027.96 3079.86 L 4027.96 3080.48 L 4027.76 3080.89 L 4027.14 3081.09 L 4025.1 3081.09 M 4029.39 3082.44 L 4025.1 3082.44 M 4029.39 3082.44 L 4029.39 3085.1 M 4027.35 3082.44 L 4027.35 3084.08" fill="none"  stroke-width="0.6"  /></g><polyline points="4020.65 3066.574 4020.65 3070.905 4014.35 3070.905 4014.35 3066.574" stroke-width="0.7874" c_shapetype="line" stroke-linecap="round" fill="none" layerid="3" net="S$67" id="gge217" /><polyline points="4020.65 3063.425 4020.65 3059.094 4016.713 3059.094 4014.35 3059.094 4014.35 3063.425" stroke-width="0.7874" c_shapetype="line" stroke-linecap="round" fill="none" layerid="3" net="S$69" id="gge218" /></g><g c_partid="part_hole" c_etype="pinpart" c_shapetype="group" c_origin="4000,3000" layerid="11" id="gge258" ><circle cx="4000" cy="3000" r="4"   stroke-width="0" /><ellipse cx="4000" cy="3000" rx="4" ry="4" fill="none" stroke-width="0.5" /></g><g c_partid="part_hole" c_etype="pinpart" c_shapetype="group" c_origin="4000,3078.74" layerid="11" id="gge262" ><circle cx="4000" cy="3078.74" r="4"   stroke-width="0" /><ellipse cx="4000" cy="3078.74" rx="4" ry="4" fill="none" stroke-width="0.5" /></g><g c_partid="part_hole" c_etype="pinpart" c_shapetype="group" c_origin="4078.74,3078.74" layerid="11" id="gge266" ><circle cx="4078.74" cy="3078.74" r="4"   stroke-width="0" /><ellipse cx="4078.74" cy="3078.74" rx="4" ry="4" fill="none" stroke-width="0.5" /></g><g c_partid="part_hole" c_etype="pinpart" c_shapetype="group" c_origin="4078.74,3000" layerid="11" id="gge270" ><circle cx="4078.74" cy="3000" r="4"   stroke-width="0" /><ellipse cx="4078.74" cy="3000" rx="4" ry="4" fill="none" stroke-width="0.5" /></g><polyline points="3990 2995.5 3995.5 2990 4104.5 2990 4119 3004.5 4119 3079.5 4101.5 3097 4002.5 3097 3990 3084.5 3990 2995.5" stroke-width="1" c_shapetype="line" stroke-linecap="round" fill="none" layerid="10" net="S$280" id="gge279" /><g c_partid="part_via" c_etype="pinpart" c_shapetype="group" net="U1_8" c_origin="4081,3011.5" layerid="11" id="gge331" locked="" solderExpansion=""><circle cx="4081" cy="3011.5" r="1.22" stroke-width="0" /><circle cx="4081" cy="3011.5" r="0.6"  stroke-width="0" /></g><g c_partid="part_via" c_etype="pinpart" c_shapetype="group" net="U1_8" c_origin="4053,3039.5" layerid="11" id="gge335" locked="" solderExpansion=""><circle cx="4053" cy="3039.5" r="1.22" stroke-width="0" /><circle cx="4053" cy="3039.5" r="0.6"  stroke-width="0" /></g><g c_partid="part_via" c_etype="pinpart" c_shapetype="group" net="U1_12" c_origin="4082.5,3059.5" layerid="11" id="gge343" locked="" solderExpansion=""><circle cx="4082.5" cy="3059.5" r="1.22" stroke-width="0" /><circle cx="4082.5" cy="3059.5" r="0.6"  stroke-width="0" /></g></g></svg>